<svg width="130" height="24" viewBox="0 0 130 24" fill="none" xmlns="http://www.w3.org/2000/svg">
<path d="M8.25 21V16.125C8.25 15.504 8.754 15 9.375 15H11.625C12.246 15 12.75 15.504 12.75 16.125V21M12.75 21H17.25V3.545M12.75 21H20.25V10.75M17.25 3.545L18.75 3M17.25 3.545L6.75 7.364M20.25 10.75L17.25 9.75M20.25 10.75L21.75 11.25M2.25 21H3.75M3.75 21H21.75M3.75 21V3H6.75V7.364M2.25 9L6.75 7.364" stroke="white" stroke-width="1.5" stroke-linecap="round" stroke-linejoin="round"/>
<path d="M34.832 6.16H39.168C40.4053 6.16 41.5253 6.42133 42.528 6.944C43.5413 7.46667 44.336 8.18133 44.912 9.088C45.488 9.984 45.776 10.9813 45.776 12.08C45.776 13.1787 45.488 14.1813 44.912 15.088C44.336 15.984 43.5413 16.6933 42.528 17.216C41.5253 17.7387 40.4053 18 39.168 18H34.832V6.16ZM39.248 15.872C39.984 15.872 40.656 15.7013 41.264 15.36C41.872 15.0187 42.3467 14.56 42.688 13.984C43.04 13.3973 43.216 12.7627 43.216 12.08C43.216 11.3973 43.04 10.768 42.688 10.192C42.3467 9.60533 41.872 9.14133 41.264 8.8C40.656 8.45867 39.984 8.288 39.248 8.288H37.392V15.872H39.248ZM47.0176 9.52H49.4336V11.664H49.4656C49.6256 10.8533 49.8763 10.272 50.2176 9.92C50.5696 9.568 51.0496 9.392 51.6576 9.392C51.9136 9.392 52.2123 9.43467 52.5536 9.52V11.792H51.3696C50.175 11.792 49.5776 12.3307 49.5776 13.408V18H47.0176V9.52ZM57.796 18.256C56.8253 18.256 55.9667 18.0533 55.22 17.648C54.4733 17.232 53.892 16.6773 53.476 15.984C53.0707 15.2907 52.868 14.544 52.868 13.744C52.868 12.944 53.0707 12.2027 53.476 11.52C53.8813 10.8373 54.452 10.2933 55.188 9.888C55.9347 9.472 56.7987 9.264 57.78 9.264C58.6227 9.264 59.4013 9.45067 60.116 9.824C60.8413 10.1867 61.4173 10.7093 61.844 11.392C62.2813 12.064 62.5 12.8533 62.5 13.76C62.5 13.888 62.4893 14.08 62.468 14.336H55.412C55.54 14.88 55.8227 15.328 56.26 15.68C56.708 16.0213 57.22 16.192 57.796 16.192C58.2547 16.192 58.644 16.096 58.964 15.904C59.2947 15.7013 59.556 15.4293 59.748 15.088H62.292C62.0573 16.0373 61.5293 16.8053 60.708 17.392C59.8973 17.968 58.9267 18.256 57.796 18.256ZM59.892 12.896C59.7533 12.448 59.4973 12.0747 59.124 11.776C58.7507 11.4773 58.2973 11.328 57.764 11.328C57.252 11.328 56.788 11.4773 56.372 11.776C55.9667 12.064 55.6787 12.4373 55.508 12.896H59.892ZM62.6116 9.52H65.1236L66.6596 14.544L68.5156 9.52H70.2116L72.0676 14.544L73.6036 9.52H75.9556L73.2356 18H70.9956L69.3156 13.648L67.6356 18H65.3316L62.6116 9.52ZM76.752 9.52H79.168V11.184H79.2C79.4773 10.4693 79.8293 9.97333 80.256 9.696C80.6827 9.408 81.1733 9.264 81.728 9.264C82.5493 9.264 83.2267 9.536 83.76 10.08C84.304 10.624 84.576 11.44 84.576 12.528V18H82.016V13.024C82.016 12.544 81.904 12.1547 81.68 11.856C81.456 11.5467 81.1147 11.392 80.656 11.392C80.1973 11.392 79.856 11.5467 79.632 11.856C79.4187 12.1547 79.312 12.544 79.312 13.024V18H76.752V9.52ZM90.5456 18.256C89.6176 18.256 88.775 18.048 88.0176 17.632C87.271 17.216 86.6843 16.6667 86.2576 15.984C85.8416 15.2907 85.6336 14.544 85.6336 13.744C85.6336 12.9547 85.8416 12.2187 86.2576 11.536C86.6843 10.8427 87.271 10.2933 88.0176 9.888C88.775 9.472 89.6176 9.264 90.5456 9.264C91.527 9.264 92.3856 9.472 93.1216 9.888C93.8683 10.2933 94.4443 10.8373 94.8496 11.52C95.255 12.2027 95.4576 12.944 95.4576 13.744C95.4576 14.5547 95.255 15.3067 94.8496 16C94.4443 16.6827 93.8683 17.232 93.1216 17.648C92.3856 18.0533 91.527 18.256 90.5456 18.256ZM88.1616 13.76C88.1616 14.1867 88.2683 14.5867 88.4816 14.96C88.695 15.3227 88.983 15.6107 89.3456 15.824C89.719 16.0373 90.119 16.144 90.5456 16.144C90.9723 16.144 91.367 16.0373 91.7296 15.824C92.103 15.6107 92.3963 15.3227 92.6096 14.96C92.823 14.5867 92.9296 14.1867 92.9296 13.76C92.9296 13.3333 92.823 12.9387 92.6096 12.576C92.3963 12.2027 92.103 11.9093 91.7296 11.696C91.367 11.4827 90.9723 11.376 90.5456 11.376C90.119 11.376 89.719 11.4827 89.3456 11.696C88.983 11.9093 88.695 12.2027 88.4816 12.576C88.2683 12.9387 88.1616 13.3333 88.1616 13.76ZM95.6273 9.52H98.1393L99.6753 14.544L101.531 9.52H103.227L105.083 14.544L106.619 9.52H108.971L106.251 18H104.011L102.331 13.648L100.651 18H98.3473L95.6273 9.52ZM112.876 18.256C111.724 18.256 110.823 18.0213 110.172 17.552C109.532 17.072 109.201 16.4 109.18 15.536H111.436C111.543 16.1973 111.985 16.528 112.764 16.528C113.105 16.528 113.372 16.4533 113.564 16.304C113.767 16.1547 113.868 15.9627 113.868 15.728C113.868 15.536 113.793 15.3813 113.644 15.264C113.495 15.1467 113.255 15.0347 112.924 14.928L111.468 14.48C110.86 14.288 110.369 14.0053 109.996 13.632C109.623 13.248 109.436 12.7093 109.436 12.016C109.436 11.472 109.575 10.992 109.852 10.576C110.14 10.16 110.535 9.84 111.036 9.616C111.548 9.38133 112.129 9.264 112.78 9.264C113.399 9.264 113.953 9.38133 114.444 9.616C114.935 9.84 115.324 10.16 115.612 10.576C115.9 10.9813 116.049 11.456 116.06 12H113.82C113.767 11.648 113.644 11.392 113.452 11.232C113.26 11.072 113.025 10.992 112.748 10.992C112.481 10.992 112.257 11.0667 112.076 11.216C111.905 11.3547 111.82 11.5253 111.82 11.728C111.82 11.9413 111.895 12.112 112.044 12.24C112.204 12.3573 112.412 12.4533 112.668 12.528L113.836 12.88C114.615 13.1147 115.212 13.4347 115.628 13.84C116.044 14.2453 116.252 14.8 116.252 15.504C116.252 16.368 115.948 17.0453 115.34 17.536C114.732 18.016 113.911 18.256 112.876 18.256ZM119.968 13.936V18H117.408V6.16H119.968V13.44L122.656 9.52H125.648L122.688 13.6L125.968 18H122.848L119.968 13.936ZM126.658 9.52H129.218V18H126.658V9.52ZM126.53 7.2C126.53 6.80533 126.664 6.47467 126.93 6.208C127.208 5.93067 127.544 5.792 127.938 5.792C128.333 5.792 128.664 5.93067 128.93 6.208C129.208 6.47467 129.346 6.80533 129.346 7.2C129.346 7.59467 129.208 7.92533 128.93 8.192C128.664 8.45867 128.333 8.592 127.938 8.592C127.544 8.592 127.208 8.45867 126.93 8.192C126.664 7.92533 126.53 7.59467 126.53 7.2Z" fill="white"/>
</svg>
